<svg id="my-svg" width="100%" xmlns="http://www.w3.org/2000/svg" xmlns:xlink="http://www.w3.org/1999/xlink" class="flowchart" style="max-width: 1609.72px; background-color: white;" viewBox="0 0 1609.72265625 966" role="graphics-document document" aria-roledescription="flowchart-v2"><style>#my-svg{font-family:"trebuchet ms",verdana,arial,sans-serif;font-size:16px;fill:#333;}@keyframes edge-animation-frame{from{stroke-dashoffset:0;}}@keyframes dash{to{stroke-dashoffset:0;}}#my-svg .edge-animation-slow{stroke-dasharray:9,5!important;stroke-dashoffset:900;animation:dash 50s linear infinite;stroke-linecap:round;}#my-svg .edge-animation-fast{stroke-dasharray:9,5!important;stroke-dashoffset:900;animation:dash 20s linear infinite;stroke-linecap:round;}#my-svg .error-icon{fill:#552222;}#my-svg .error-text{fill:#552222;stroke:#552222;}#my-svg .edge-thickness-normal{stroke-width:1px;}#my-svg .edge-thickness-thick{stroke-width:3.5px;}#my-svg .edge-pattern-solid{stroke-dasharray:0;}#my-svg .edge-thickness-invisible{stroke-width:0;fill:none;}#my-svg .edge-pattern-dashed{stroke-dasharray:3;}#my-svg .edge-pattern-dotted{stroke-dasharray:2;}#my-svg .marker{fill:#333333;stroke:#333333;}#my-svg .marker.cross{stroke:#333333;}#my-svg svg{font-family:"trebuchet ms",verdana,arial,sans-serif;font-size:16px;}#my-svg p{margin:0;}#my-svg .label{font-family:"trebuchet ms",verdana,arial,sans-serif;color:#333;}#my-svg .cluster-label text{fill:#333;}#my-svg .cluster-label span{color:#333;}#my-svg .cluster-label span p{background-color:transparent;}#my-svg .label text,#my-svg span{fill:#333;color:#333;}#my-svg .node rect,#my-svg .node circle,#my-svg .node ellipse,#my-svg .node polygon,#my-svg .node path{fill:#ECECFF;stroke:#9370DB;stroke-width:1px;}#my-svg .rough-node .label text,#my-svg .node .label text,#my-svg .image-shape .label,#my-svg .icon-shape .label{text-anchor:middle;}#my-svg .node .katex path{fill:#000;stroke:#000;stroke-width:1px;}#my-svg .rough-node .label,#my-svg .node .label,#my-svg .image-shape .label,#my-svg .icon-shape .label{text-align:center;}#my-svg .node.clickable{cursor:pointer;}#my-svg .root .anchor path{fill:#333333!important;stroke-width:0;stroke:#333333;}#my-svg .arrowheadPath{fill:#333333;}#my-svg .edgePath .path{stroke:#333333;stroke-width:2.0px;}#my-svg .flowchart-link{stroke:#333333;fill:none;}#my-svg .edgeLabel{background-color:rgba(232,232,232, 0.8);text-align:center;}#my-svg .edgeLabel p{background-color:rgba(232,232,232, 0.8);}#my-svg .edgeLabel rect{opacity:0.5;background-color:rgba(232,232,232, 0.8);fill:rgba(232,232,232, 0.8);}#my-svg .labelBkg{background-color:rgba(232, 232, 232, 0.5);}#my-svg .cluster rect{fill:#ffffde;stroke:#aaaa33;stroke-width:1px;}#my-svg .cluster text{fill:#333;}#my-svg .cluster span{color:#333;}#my-svg div.mermaidTooltip{position:absolute;text-align:center;max-width:200px;padding:2px;font-family:"trebuchet ms",verdana,arial,sans-serif;font-size:12px;background:hsl(80, 100%, 96.2745098039%);border:1px solid #aaaa33;border-radius:2px;pointer-events:none;z-index:100;}#my-svg .flowchartTitleText{text-anchor:middle;font-size:18px;fill:#333;}#my-svg rect.text{fill:none;stroke-width:0;}#my-svg .icon-shape,#my-svg .image-shape{background-color:rgba(232,232,232, 0.8);text-align:center;}#my-svg .icon-shape p,#my-svg .image-shape p{background-color:rgba(232,232,232, 0.8);padding:2px;}#my-svg .icon-shape rect,#my-svg .image-shape rect{opacity:0.5;background-color:rgba(232,232,232, 0.8);fill:rgba(232,232,232, 0.8);}#my-svg .label-icon{display:inline-block;height:1em;overflow:visible;vertical-align:-0.125em;}#my-svg .node .label-icon path{fill:currentColor;stroke:revert;stroke-width:revert;}#my-svg :root{--mermaid-font-family:"trebuchet ms",verdana,arial,sans-serif;}#my-svg .entity&gt;*{fill:#0f172a!important;stroke:#38bdf8!important;color:#e0f2fe!important;stroke-width:1px!important;}#my-svg .entity span{fill:#0f172a!important;stroke:#38bdf8!important;color:#e0f2fe!important;stroke-width:1px!important;}#my-svg .entity tspan{fill:#e0f2fe!important;}#my-svg .risk&gt;*{fill:#312e81!important;stroke:#a78bfa!important;color:#ede9fe!important;stroke-width:1px!important;}#my-svg .risk span{fill:#312e81!important;stroke:#a78bfa!important;color:#ede9fe!important;stroke-width:1px!important;}#my-svg .risk tspan{fill:#ede9fe!important;}#my-svg .evidence&gt;*{fill:#1e293b!important;stroke:#94a3b8!important;color:#f8fafc!important;stroke-width:1px!important;}#my-svg .evidence span{fill:#1e293b!important;stroke:#94a3b8!important;color:#f8fafc!important;stroke-width:1px!important;}#my-svg .evidence tspan{fill:#f8fafc!important;}</style><g><marker id="my-svg_flowchart-v2-pointEnd" class="marker flowchart-v2" viewBox="0 0 10 10" refX="5" refY="5" markerUnits="userSpaceOnUse" markerWidth="8" markerHeight="8" orient="auto"><path d="M 0 0 L 10 5 L 0 10 z" class="arrowMarkerPath" style="stroke-width: 1; stroke-dasharray: 1, 0;"/></marker><marker id="my-svg_flowchart-v2-pointStart" class="marker flowchart-v2" viewBox="0 0 10 10" refX="4.5" refY="5" markerUnits="userSpaceOnUse" markerWidth="8" markerHeight="8" orient="auto"><path d="M 0 5 L 10 10 L 10 0 z" class="arrowMarkerPath" style="stroke-width: 1; stroke-dasharray: 1, 0;"/></marker><marker id="my-svg_flowchart-v2-circleEnd" class="marker flowchart-v2" viewBox="0 0 10 10" refX="11" refY="5" markerUnits="userSpaceOnUse" markerWidth="11" markerHeight="11" orient="auto"><circle cx="5" cy="5" r="5" class="arrowMarkerPath" style="stroke-width: 1; stroke-dasharray: 1, 0;"/></marker><marker id="my-svg_flowchart-v2-circleStart" class="marker flowchart-v2" viewBox="0 0 10 10" refX="-1" refY="5" markerUnits="userSpaceOnUse" markerWidth="11" markerHeight="11" orient="auto"><circle cx="5" cy="5" r="5" class="arrowMarkerPath" style="stroke-width: 1; stroke-dasharray: 1, 0;"/></marker><marker id="my-svg_flowchart-v2-crossEnd" class="marker cross flowchart-v2" viewBox="0 0 11 11" refX="12" refY="5.2" markerUnits="userSpaceOnUse" markerWidth="11" markerHeight="11" orient="auto"><path d="M 1,1 l 9,9 M 10,1 l -9,9" class="arrowMarkerPath" style="stroke-width: 2; stroke-dasharray: 1, 0;"/></marker><marker id="my-svg_flowchart-v2-crossStart" class="marker cross flowchart-v2" viewBox="0 0 11 11" refX="-1" refY="5.2" markerUnits="userSpaceOnUse" markerWidth="11" markerHeight="11" orient="auto"><path d="M 1,1 l 9,9 M 10,1 l -9,9" class="arrowMarkerPath" style="stroke-width: 2; stroke-dasharray: 1, 0;"/></marker><g class="root"><g class="clusters"/><g class="edgePaths"><path d="M593.406,306.351L559.226,314.459C525.046,322.567,456.685,338.784,422.505,352.392C388.324,366,388.324,377,388.324,382.5L388.324,388" id="L_EMP_MGR_0" class="edge-thickness-normal edge-pattern-solid edge-thickness-normal edge-pattern-solid flowchart-link" style=";" data-edge="true" data-et="edge" data-id="L_EMP_MGR_0" data-points="W3sieCI6NTkzLjQwNjI1LCJ5IjozMDYuMzUwNjU5NTA0NTM5MDd9LHsieCI6Mzg4LjMyNDIxODc1LCJ5IjozNTV9LHsieCI6Mzg4LjMyNDIxODc1LCJ5IjozOTJ9XQ==" marker-end="url(#my-svg_flowchart-v2-pointEnd)"/><path d="M622.38,318L614.218,324.167C606.055,330.333,589.731,342.667,581.569,359.5C573.406,376.333,573.406,397.667,573.406,419C573.406,440.333,573.406,461.667,553.06,478.889C532.714,496.111,492.023,509.221,471.677,515.776L451.331,522.332" id="L_EMP_DEPT_0" class="edge-thickness-normal edge-pattern-solid edge-thickness-normal edge-pattern-solid flowchart-link" style=";" data-edge="true" data-et="edge" data-id="L_EMP_DEPT_0" data-points="W3sieCI6NjIyLjM3OTc2MDc0MjE4NzUsInkiOjMxOH0seyJ4Ijo1NzMuNDA2MjUsInkiOjM1NX0seyJ4Ijo1NzMuNDA2MjUsInkiOjQxOX0seyJ4Ijo1NzMuNDA2MjUsInkiOjQ4M30seyJ4Ijo0NDcuNTIzNDM3NSwieSI6NTIzLjU1ODE2ODgwMzU4Njl9XQ==" marker-end="url(#my-svg_flowchart-v2-pointEnd)"/><path d="M349.454,446L340.576,452.167C331.699,458.333,313.943,470.667,312.12,482.579C310.296,494.491,324.405,505.983,331.46,511.728L338.514,517.474" id="L_MGR_DEPT_0" class="edge-thickness-normal edge-pattern-solid edge-thickness-normal edge-pattern-solid flowchart-link" style=";" data-edge="true" data-et="edge" data-id="L_MGR_DEPT_0" data-points="W3sieCI6MzQ5LjQ1NDA0MDUyNzM0Mzc1LCJ5Ijo0NDZ9LHsieCI6Mjk2LjE4NzUsInkiOjQ4M30seyJ4IjozNDEuNjE1NDc4NTE1NjI1LCJ5Ijo1MjB9XQ==" marker-end="url(#my-svg_flowchart-v2-pointEnd)"/><path d="M642.376,318L638.781,324.167C635.186,330.333,627.995,342.667,672.661,356.52C717.328,370.373,813.851,385.745,862.112,393.432L910.374,401.118" id="L_EMP_NOM_0" class="edge-thickness-normal edge-pattern-solid edge-thickness-normal edge-pattern-solid flowchart-link" style=";" data-edge="true" data-et="edge" data-id="L_EMP_NOM_0" data-points="W3sieCI6NjQyLjM3NTk3NjU2MjUsInkiOjMxOH0seyJ4Ijo2MjAuODA0Njg3NSwieSI6MzU1fSx7IngiOjkxNC4zMjQyMTg3NSwieSI6NDAxLjc0NzE5MzE0MTA1NzQ0fV0=" marker-end="url(#my-svg_flowchart-v2-pointEnd)"/><path d="M956.469,446L941.353,452.167C926.237,458.333,896.005,470.667,840.672,485.225C785.339,499.783,704.905,516.565,664.688,524.956L624.47,533.348" id="L_NOM_APPROVAL_0" class="edge-thickness-normal edge-pattern-solid edge-thickness-normal edge-pattern-solid flowchart-link" style=";" data-edge="true" data-et="edge" data-id="L_NOM_APPROVAL_0" data-points="W3sieCI6OTU2LjQ2OTA1NTE3NTc4MTIsInkiOjQ0Nn0seyJ4Ijo4NjUuNzczNDM3NSwieSI6NDgzfSx7IngiOjYyMC41NTQ2ODc1LCJ5Ijo1MzQuMTY0NzkwMzgyNTU4Mn1d" marker-end="url(#my-svg_flowchart-v2-pointEnd)"/><path d="M427.194,446L436.072,452.167C444.95,458.333,462.705,470.667,478.638,482.579C494.57,494.491,508.679,505.983,515.733,511.728L522.787,517.474" id="L_MGR_APPROVAL_0" class="edge-thickness-normal edge-pattern-solid edge-thickness-normal edge-pattern-solid flowchart-link" style=";" data-edge="true" data-et="edge" data-id="L_MGR_APPROVAL_0" data-points="W3sieCI6NDI3LjE5NDM5Njk3MjY1NjI1LCJ5Ijo0NDZ9LHsieCI6NDgwLjQ2MDkzNzUsInkiOjQ4M30seyJ4Ijo1MjUuODg4OTE2MDE1NjI1LCJ5Ijo1MjB9XQ==" marker-end="url(#my-svg_flowchart-v2-pointEnd)"/><path d="M497.523,564.749L470.807,572.458C444.091,580.166,390.659,595.583,445.358,612.539C500.058,629.496,662.889,647.992,744.305,657.239L825.721,666.487" id="L_APPROVAL_TXN_0" class="edge-thickness-normal edge-pattern-solid edge-thickness-normal edge-pattern-solid flowchart-link" style=";" data-edge="true" data-et="edge" data-id="L_APPROVAL_TXN_0" data-points="W3sieCI6NDk3LjUyMzQzNzUsInkiOjU2NC43NDkyMjUxMzM4NDA1fSx7IngiOjMzNy4yMjY1NjI1LCJ5Ijo2MTF9LHsieCI6ODI5LjY5NTMxMjUsInkiOjY2Ni45Mzg3Njg3MTg4MDJ9XQ==" marker-end="url(#my-svg_flowchart-v2-pointEnd)"/><path d="M874.3,702L868.279,708.167C862.257,714.333,850.215,726.667,839.169,738.501C828.124,750.336,818.076,761.671,813.052,767.339L808.028,773.007" id="L_TXN_VENDOR_0" class="edge-thickness-normal edge-pattern-solid edge-thickness-normal edge-pattern-solid flowchart-link" style=";" data-edge="true" data-et="edge" data-id="L_TXN_VENDOR_0" data-points="W3sieCI6ODc0LjMwMDE3MDg5ODQzNzUsInkiOjcwMn0seyJ4Ijo4MzguMTcxODc1LCJ5Ijo3Mzl9LHsieCI6ODA1LjM3NDU3Mjc1MzkwNjIsInkiOjc3Nn1d" marker-end="url(#my-svg_flowchart-v2-pointEnd)"/><path d="M686.211,318L692.628,324.167C699.045,330.333,711.878,342.667,718.294,359.5C724.711,376.333,724.711,397.667,724.711,419C724.711,440.333,724.711,461.667,724.711,483C724.711,504.333,724.711,525.667,724.711,547C724.711,568.333,724.711,589.667,724.711,611C724.711,632.333,724.711,653.667,724.711,675C724.711,696.333,724.711,717.667,729.735,734.001C734.759,750.336,744.807,761.671,749.831,767.339L754.855,773.007" id="L_EMP_VENDOR_0" class="edge-thickness-normal edge-pattern-solid edge-thickness-normal edge-pattern-solid flowchart-link" style=";" data-edge="true" data-et="edge" data-id="L_EMP_VENDOR_0" data-points="W3sieCI6Njg2LjIxMTQyNTc4MTI1LCJ5IjozMTh9LHsieCI6NzI0LjcxMDkzNzUsInkiOjM1NX0seyJ4Ijo3MjQuNzEwOTM3NSwieSI6NDE5fSx7IngiOjcyNC43MTA5Mzc1LCJ5Ijo0ODN9LHsieCI6NzI0LjcxMDkzNzUsInkiOjU0N30seyJ4Ijo3MjQuNzEwOTM3NSwieSI6NjExfSx7IngiOjcyNC43MTA5Mzc1LCJ5Ijo2NzV9LHsieCI6NzI0LjcxMDkzNzUsInkiOjczOX0seyJ4Ijo3NTcuNTA4MjM5NzQ2MDkzOCwieSI6Nzc2fV0=" marker-end="url(#my-svg_flowchart-v2-pointEnd)"/><path d="M781.441,830L781.441,836.167C781.441,842.333,781.441,854.667,801.772,866.812C822.102,878.957,862.762,890.914,883.093,896.893L903.423,902.871" id="L_VENDOR_DOC_0" class="edge-thickness-normal edge-pattern-solid edge-thickness-normal edge-pattern-solid flowchart-link" style=";" data-edge="true" data-et="edge" data-id="L_VENDOR_DOC_0" data-points="W3sieCI6NzgxLjQ0MTQwNjI1LCJ5Ijo4MzB9LHsieCI6NzgxLjQ0MTQwNjI1LCJ5Ijo4Njd9LHsieCI6OTA3LjI2MDM3NTk3NjU2MjUsInkiOjkwNH1d" marker-end="url(#my-svg_flowchart-v2-pointEnd)"/><path d="M722.828,298.798L800.564,308.165C878.301,317.532,1033.773,336.266,1111.51,356.3C1189.246,376.333,1189.246,397.667,1189.246,419C1189.246,440.333,1189.246,461.667,1189.246,483C1189.246,504.333,1189.246,525.667,1189.246,547C1189.246,568.333,1189.246,589.667,1189.246,605.833C1189.246,622,1189.246,633,1189.246,638.5L1189.246,644" id="L_EMP_DEVICE_0" class="edge-thickness-normal edge-pattern-solid edge-thickness-normal edge-pattern-solid flowchart-link" style=";" data-edge="true" data-et="edge" data-id="L_EMP_DEVICE_0" data-points="W3sieCI6NzIyLjgyODEyNSwieSI6Mjk4Ljc5NzU0MjA4Njc5OTJ9LHsieCI6MTE4OS4yNDYwOTM3NSwieSI6MzU1fSx7IngiOjExODkuMjQ2MDkzNzUsInkiOjQxOX0seyJ4IjoxMTg5LjI0NjA5Mzc1LCJ5Ijo0ODN9LHsieCI6MTE4OS4yNDYwOTM3NSwieSI6NTQ3fSx7IngiOjExODkuMjQ2MDkzNzUsInkiOjYxMX0seyJ4IjoxMTg5LjI0NjA5Mzc1LCJ5Ijo2NDh9XQ==" marker-end="url(#my-svg_flowchart-v2-pointEnd)"/><path d="M1189.246,702L1189.246,708.167C1189.246,714.333,1189.246,726.667,1189.246,738.333C1189.246,750,1189.246,761,1189.246,766.5L1189.246,772" id="L_DEVICE_IDENTITY_0" class="edge-thickness-normal edge-pattern-solid edge-thickness-normal edge-pattern-solid flowchart-link" style=";" data-edge="true" data-et="edge" data-id="L_DEVICE_IDENTITY_0" data-points="W3sieCI6MTE4OS4yNDYwOTM3NSwieSI6NzAyfSx7IngiOjExODkuMjQ2MDkzNzUsInkiOjczOX0seyJ4IjoxMTg5LjI0NjA5Mzc1LCJ5Ijo3NzZ9XQ==" marker-end="url(#my-svg_flowchart-v2-pointEnd)"/><path d="M1189.246,830L1189.246,836.167C1189.246,842.333,1189.246,854.667,1171.554,866.787C1153.862,878.908,1118.478,890.816,1100.786,896.77L1083.094,902.724" id="L_IDENTITY_DOC_0" class="edge-thickness-normal edge-pattern-solid edge-thickness-normal edge-pattern-solid flowchart-link" style=";" data-edge="true" data-et="edge" data-id="L_IDENTITY_DOC_0" data-points="W3sieCI6MTE4OS4yNDYwOTM3NSwieSI6ODMwfSx7IngiOjExODkuMjQ2MDkzNzUsInkiOjg2N30seyJ4IjoxMDc5LjMwMjk3ODUxNTYyNSwieSI6OTA0fV0=" marker-end="url(#my-svg_flowchart-v2-pointEnd)"/><path d="M1036.545,446L1039.717,452.167C1042.89,458.333,1049.236,470.667,1052.409,487.5C1055.582,504.333,1055.582,525.667,1055.582,547C1055.582,568.333,1055.582,589.667,1055.582,611C1055.582,632.333,1055.582,653.667,1055.582,675C1055.582,696.333,1055.582,717.667,1055.582,739C1055.582,760.333,1055.582,781.667,1055.582,803C1055.582,824.333,1055.582,845.667,1050.579,862C1045.575,878.334,1035.568,889.668,1030.564,895.335L1025.561,901.002" id="L_NOM_DOC_0" class="edge-thickness-normal edge-pattern-solid edge-thickness-normal edge-pattern-solid flowchart-link" style=";" data-edge="true" data-et="edge" data-id="L_NOM_DOC_0" data-points="W3sieCI6MTAzNi41NDQ1NTU2NjQwNjI1LCJ5Ijo0NDZ9LHsieCI6MTA1NS41ODIwMzEyNSwieSI6NDgzfSx7IngiOjEwNTUuNTgyMDMxMjUsInkiOjU0N30seyJ4IjoxMDU1LjU4MjAzMTI1LCJ5Ijo2MTF9LHsieCI6MTA1NS41ODIwMzEyNSwieSI6Njc1fSx7IngiOjEwNTUuNTgyMDMxMjUsInkiOjczOX0seyJ4IjoxMDU1LjU4MjAzMTI1LCJ5Ijo4MDN9LHsieCI6MTA1NS41ODIwMzEyNSwieSI6ODY3fSx7IngiOjEwMjIuOTEzNDUyMTQ4NDM3NSwieSI6OTA0fV0=" marker-end="url(#my-svg_flowchart-v2-pointEnd)"/><path d="M924.597,702L930.063,708.167C935.53,714.333,946.462,726.667,951.928,743.5C957.395,760.333,957.395,781.667,957.395,803C957.395,824.333,957.395,845.667,961.047,861.941C964.699,878.216,972.003,889.432,975.656,895.04L979.308,900.648" id="L_TXN_DOC_0" class="edge-thickness-normal edge-pattern-solid edge-thickness-normal edge-pattern-solid flowchart-link" style=";" data-edge="true" data-et="edge" data-id="L_TXN_DOC_0" data-points="W3sieCI6OTI0LjU5NzIyOTAwMzkwNjIsInkiOjcwMn0seyJ4Ijo5NTcuMzk0NTMxMjUsInkiOjczOX0seyJ4Ijo5NTcuMzk0NTMxMjUsInkiOjgwM30seyJ4Ijo5NTcuMzk0NTMxMjUsInkiOjg2N30seyJ4Ijo5ODEuNDkwNjAwNTg1OTM3NSwieSI6OTA0fV0=" marker-end="url(#my-svg_flowchart-v2-pointEnd)"/><path d="M581.685,574L586.857,580.167C592.03,586.333,602.374,598.667,607.546,615.5C612.719,632.333,612.719,653.667,612.719,675C612.719,696.333,612.719,717.667,612.719,739C612.719,760.333,612.719,781.667,612.719,803C612.719,824.333,612.719,845.667,658.605,863.934C704.491,882.202,796.262,897.404,842.148,905.005L888.034,912.606" id="L_APPROVAL_DOC_0" class="edge-thickness-normal edge-pattern-solid edge-thickness-normal edge-pattern-solid flowchart-link" style=";" data-edge="true" data-et="edge" data-id="L_APPROVAL_DOC_0" data-points="W3sieCI6NTgxLjY4NTE4MDY2NDA2MjUsInkiOjU3NH0seyJ4Ijo2MTIuNzE4NzUsInkiOjYxMX0seyJ4Ijo2MTIuNzE4NzUsInkiOjY3NX0seyJ4Ijo2MTIuNzE4NzUsInkiOjczOX0seyJ4Ijo2MTIuNzE4NzUsInkiOjgwM30seyJ4Ijo2MTIuNzE4NzUsInkiOjg2N30seyJ4Ijo4OTEuOTgwNDY4NzUsInkiOjkxMy4yNTk4NjAyNzI3ODE1fV0=" marker-end="url(#my-svg_flowchart-v2-pointEnd)"/><path d="M171.84,184.578L150.9,191.649C129.961,198.719,88.082,212.859,157.68,229.399C227.278,245.939,408.353,264.877,498.89,274.347L589.428,283.816" id="L_ALERT_EMP_0" class="edge-thickness-normal edge-pattern-solid edge-thickness-normal edge-pattern-solid flowchart-link" style=";" data-edge="true" data-et="edge" data-id="L_ALERT_EMP_0" data-points="W3sieCI6MTcxLjgzOTg0Mzc1LCJ5IjoxODQuNTc4MjIwNjM3NjM1NzV9LHsieCI6NDYuMjAzMTI1LCJ5IjoyMjd9LHsieCI6NTkzLjQwNjI1LCJ5IjoyODQuMjMxODkyNzU0NTQ4Mzd9XQ==" marker-end="url(#my-svg_flowchart-v2-pointEnd)"/><path d="M180.337,190L167.682,196.167C155.027,202.333,129.717,214.667,117.061,231.5C104.406,248.333,104.406,269.667,104.406,291C104.406,312.333,104.406,333.667,104.406,355C104.406,376.333,104.406,397.667,104.406,419C104.406,440.333,104.406,461.667,104.406,483C104.406,504.333,104.406,525.667,104.406,547C104.406,568.333,104.406,589.667,104.406,611C104.406,632.333,104.406,653.667,104.406,675C104.406,696.333,104.406,717.667,207.452,738.074C310.497,758.482,516.587,777.963,619.633,787.704L722.678,797.445" id="L_ALERT_VENDOR_0" class="edge-thickness-normal edge-pattern-solid edge-thickness-normal edge-pattern-solid flowchart-link" style=";" data-edge="true" data-et="edge" data-id="L_ALERT_VENDOR_0" data-points="W3sieCI6MTgwLjMzNzA5NzE2Nzk2ODc1LCJ5IjoxOTB9LHsieCI6MTA0LjQwNjI1LCJ5IjoyMjd9LHsieCI6MTA0LjQwNjI1LCJ5IjoyOTF9LHsieCI6MTA0LjQwNjI1LCJ5IjozNTV9LHsieCI6MTA0LjQwNjI1LCJ5Ijo0MTl9LHsieCI6MTA0LjQwNjI1LCJ5Ijo0ODN9LHsieCI6MTA0LjQwNjI1LCJ5Ijo1NDd9LHsieCI6MTA0LjQwNjI1LCJ5Ijo2MTF9LHsieCI6MTA0LjQwNjI1LCJ5Ijo2NzV9LHsieCI6MTA0LjQwNjI1LCJ5Ijo3Mzl9LHsieCI6NzI2LjY2MDE1NjI1LCJ5Ijo3OTcuODIxNTM5MjI0OTA2NH1d" marker-end="url(#my-svg_flowchart-v2-pointEnd)"/><path d="M204.892,190L197.845,196.167C190.797,202.333,176.703,214.667,169.656,231.5C162.609,248.333,162.609,269.667,162.609,291C162.609,312.333,162.609,333.667,162.609,355C162.609,376.333,162.609,397.667,162.609,419C162.609,440.333,162.609,461.667,162.609,483C162.609,504.333,162.609,525.667,162.609,547C162.609,568.333,162.609,589.667,273.126,609.917C383.643,630.167,604.677,649.334,715.193,658.917L825.71,668.5" id="L_ALERT_TXN_0" class="edge-thickness-normal edge-pattern-solid edge-thickness-normal edge-pattern-solid flowchart-link" style=";" data-edge="true" data-et="edge" data-id="L_ALERT_TXN_0" data-points="W3sieCI6MjA0Ljg5MTU0MDUyNzM0Mzc1LCJ5IjoxOTB9LHsieCI6MTYyLjYwOTM3NSwieSI6MjI3fSx7IngiOjE2Mi42MDkzNzUsInkiOjI5MX0seyJ4IjoxNjIuNjA5Mzc1LCJ5IjozNTV9LHsieCI6MTYyLjYwOTM3NSwieSI6NDE5fSx7IngiOjE2Mi42MDkzNzUsInkiOjQ4M30seyJ4IjoxNjIuNjA5Mzc1LCJ5Ijo1NDd9LHsieCI6MTYyLjYwOTM3NSwieSI6NjExfSx7IngiOjgyOS42OTUzMTI1LCJ5Ijo2NjguODQ1OTg0NDgyMDEwNH1d" marker-end="url(#my-svg_flowchart-v2-pointEnd)"/><path d="M229.446,190L228.007,196.167C226.568,202.333,223.69,214.667,222.251,231.5C220.813,248.333,220.813,269.667,220.813,291C220.813,312.333,220.813,333.667,220.813,355C220.813,376.333,220.813,397.667,220.813,419C220.813,440.333,220.813,461.667,266.276,480.936C311.739,500.205,402.666,517.411,448.13,526.013L493.593,534.616" id="L_ALERT_APPROVAL_0" class="edge-thickness-normal edge-pattern-solid edge-thickness-normal edge-pattern-solid flowchart-link" style=";" data-edge="true" data-et="edge" data-id="L_ALERT_APPROVAL_0" data-points="W3sieCI6MjI5LjQ0NTk4Mzg4NjcxODc1LCJ5IjoxOTB9LHsieCI6MjIwLjgxMjUsInkiOjIyN30seyJ4IjoyMjAuODEyNSwieSI6MjkxfSx7IngiOjIyMC44MTI1LCJ5IjozNTV9LHsieCI6MjIwLjgxMjUsInkiOjQxOX0seyJ4IjoyMjAuODEyNSwieSI6NDgzfSx7IngiOjQ5Ny41MjM0Mzc1LCJ5Ijo1MzUuMzU5ODczNDIwNjQ1NH1d" marker-end="url(#my-svg_flowchart-v2-pointEnd)"/><path d="M299.652,167.095L455.46,177.079C611.267,187.063,922.882,207.032,1078.689,227.683C1234.496,248.333,1234.496,269.667,1234.496,291C1234.496,312.333,1234.496,333.667,1214.722,350.307C1194.948,366.948,1155.401,378.895,1135.627,384.869L1115.853,390.843" id="L_ALERT_NOM_0" class="edge-thickness-normal edge-pattern-solid edge-thickness-normal edge-pattern-solid flowchart-link" style=";" data-edge="true" data-et="edge" data-id="L_ALERT_NOM_0" data-points="W3sieCI6Mjk5LjY1MjM0Mzc1LCJ5IjoxNjcuMDk1MTE4ODk4NjIzMjd9LHsieCI6MTIzNC40OTYwOTM3NSwieSI6MjI3fSx7IngiOjEyMzQuNDk2MDkzNzUsInkiOjI5MX0seyJ4IjoxMjM0LjQ5NjA5Mzc1LCJ5IjozNTV9LHsieCI6MTExMi4wMjM5MjU3ODEyNSwieSI6MzkyfV0=" marker-end="url(#my-svg_flowchart-v2-pointEnd)"/><path d="M299.652,166.797L468.552,176.83C637.452,186.864,975.251,206.932,1144.151,227.633C1313.051,248.333,1313.051,269.667,1313.051,291C1313.051,312.333,1313.051,333.667,1313.051,355C1313.051,376.333,1313.051,397.667,1313.051,419C1313.051,440.333,1313.051,461.667,1313.051,483C1313.051,504.333,1313.051,525.667,1313.051,547C1313.051,568.333,1313.051,589.667,1313.051,611C1313.051,632.333,1313.051,653.667,1313.051,675C1313.051,696.333,1313.051,717.667,1313.051,739C1313.051,760.333,1313.051,781.667,1313.051,803C1313.051,824.333,1313.051,845.667,1279.224,863.229C1245.396,880.79,1177.742,894.581,1143.915,901.476L1110.087,908.371" id="L_ALERT_DOC_0" class="edge-thickness-normal edge-pattern-solid edge-thickness-normal edge-pattern-solid flowchart-link" style=";" data-edge="true" data-et="edge" data-id="L_ALERT_DOC_0" data-points="W3sieCI6Mjk5LjY1MjM0Mzc1LCJ5IjoxNjYuNzk2NTExODM4NzE3ODZ9LHsieCI6MTMxMy4wNTA3ODEyNSwieSI6MjI3fSx7IngiOjEzMTMuMDUwNzgxMjUsInkiOjI5MX0seyJ4IjoxMzEzLjA1MDc4MTI1LCJ5IjozNTV9LHsieCI6MTMxMy4wNTA3ODEyNSwieSI6NDE5fSx7IngiOjEzMTMuMDUwNzgxMjUsInkiOjQ4M30seyJ4IjoxMzEzLjA1MDc4MTI1LCJ5Ijo1NDd9LHsieCI6MTMxMy4wNTA3ODEyNSwieSI6NjExfSx7IngiOjEzMTMuMDUwNzgxMjUsInkiOjY3NX0seyJ4IjoxMzEzLjA1MDc4MTI1LCJ5Ijo3Mzl9LHsieCI6MTMxMy4wNTA3ODEyNSwieSI6ODAzfSx7IngiOjEzMTMuMDUwNzgxMjUsInkiOjg2N30seyJ4IjoxMTA2LjE2Nzk2ODc1LCJ5Ijo5MDkuMTcwMzQ1MTE5MzExM31d" marker-end="url(#my-svg_flowchart-v2-pointEnd)"/><path d="M1401.582,39.818L1207.276,49.681C1012.97,59.545,624.358,79.273,430.052,94.636C235.746,110,235.746,121,235.746,126.5L235.746,132" id="L_CASE_ALERT_0" class="edge-thickness-normal edge-pattern-solid edge-thickness-normal edge-pattern-solid flowchart-link" style=";" data-edge="true" data-et="edge" data-id="L_CASE_ALERT_0" data-points="W3sieCI6MTQwMS41ODIwMzEyNSwieSI6MzkuODE3Nzk3MDU2NTQ1MzJ9LHsieCI6MjM1Ljc0NjA5Mzc1LCJ5Ijo5OX0seyJ4IjoyMzUuNzQ2MDkzNzUsInkiOjEzNn1d" marker-end="url(#my-svg_flowchart-v2-pointEnd)"/><path d="M1443.655,62L1431.588,68.167C1419.521,74.333,1395.388,86.667,1383.321,103.5C1371.254,120.333,1371.254,141.667,1371.254,163C1371.254,184.333,1371.254,205.667,1371.254,227C1371.254,248.333,1371.254,269.667,1371.254,291C1371.254,312.333,1371.254,333.667,1371.254,355C1371.254,376.333,1371.254,397.667,1371.254,419C1371.254,440.333,1371.254,461.667,1371.254,483C1371.254,504.333,1371.254,525.667,1371.254,547C1371.254,568.333,1371.254,589.667,1371.254,611C1371.254,632.333,1371.254,653.667,1371.254,675C1371.254,696.333,1371.254,717.667,1371.254,739C1371.254,760.333,1371.254,781.667,1371.254,803C1371.254,824.333,1371.254,845.667,1327.73,863.818C1284.206,881.969,1197.158,896.938,1153.634,904.422L1110.11,911.906" id="L_CASE_DOC_0" class="edge-thickness-normal edge-pattern-solid edge-thickness-normal edge-pattern-solid flowchart-link" style=";" data-edge="true" data-et="edge" data-id="L_CASE_DOC_0" data-points="W3sieCI6MTQ0My42NTUwMjkyOTY4NzUsInkiOjYyfSx7IngiOjEzNzEuMjUzOTA2MjUsInkiOjk5fSx7IngiOjEzNzEuMjUzOTA2MjUsInkiOjE2M30seyJ4IjoxMzcxLjI1MzkwNjI1LCJ5IjoyMjd9LHsieCI6MTM3MS4yNTM5MDYyNSwieSI6MjkxfSx7IngiOjEzNzEuMjUzOTA2MjUsInkiOjM1NX0seyJ4IjoxMzcxLjI1MzkwNjI1LCJ5Ijo0MTl9LHsieCI6MTM3MS4yNTM5MDYyNSwieSI6NDgzfSx7IngiOjEzNzEuMjUzOTA2MjUsInkiOjU0N30seyJ4IjoxMzcxLjI1MzkwNjI1LCJ5Ijo2MTF9LHsieCI6MTM3MS4yNTM5MDYyNSwieSI6Njc1fSx7IngiOjEzNzEuMjUzOTA2MjUsInkiOjczOX0seyJ4IjoxMzcxLjI1MzkwNjI1LCJ5Ijo4MDN9LHsieCI6MTM3MS4yNTM5MDYyNSwieSI6ODY3fSx7IngiOjExMDYuMTY3OTY4NzUsInkiOjkxMi41ODQxNjQyMzUxODU0fV0=" marker-end="url(#my-svg_flowchart-v2-pointEnd)"/><path d="M1470.072,62L1464.038,68.167C1458.005,74.333,1445.938,86.667,1439.905,103.5C1433.871,120.333,1433.871,141.667,1433.871,163C1433.871,184.333,1433.871,205.667,1316.028,226.055C1198.186,246.444,962.5,265.888,844.657,275.61L726.815,285.332" id="L_CASE_EMP_0" class="edge-thickness-normal edge-pattern-solid edge-thickness-normal edge-pattern-solid flowchart-link" style=";" data-edge="true" data-et="edge" data-id="L_CASE_EMP_0" data-points="W3sieCI6MTQ3MC4wNzE2NTUyNzM0Mzc1LCJ5Ijo2Mn0seyJ4IjoxNDMzLjg3MTA5Mzc1LCJ5Ijo5OX0seyJ4IjoxNDMzLjg3MTA5Mzc1LCJ5IjoxNjN9LHsieCI6MTQzMy44NzEwOTM3NSwieSI6MjI3fSx7IngiOjcyMi44MjgxMjUsInkiOjI4NS42NjEzMjI0MDMxMDU4fV0=" marker-end="url(#my-svg_flowchart-v2-pointEnd)"/><path d="M1496.488,62L1496.488,68.167C1496.488,74.333,1496.488,86.667,1496.488,103.5C1496.488,120.333,1496.488,141.667,1496.488,163C1496.488,184.333,1496.488,205.667,1496.488,227C1496.488,248.333,1496.488,269.667,1496.488,291C1496.488,312.333,1496.488,333.667,1496.488,355C1496.488,376.333,1496.488,397.667,1496.488,419C1496.488,440.333,1496.488,461.667,1496.488,483C1496.488,504.333,1496.488,525.667,1496.488,547C1496.488,568.333,1496.488,589.667,1496.488,611C1496.488,632.333,1496.488,653.667,1496.488,675C1496.488,696.333,1496.488,717.667,1387.108,738.123C1277.728,758.58,1058.967,778.16,949.587,787.95L840.207,797.74" id="L_CASE_VENDOR_0" class="edge-thickness-normal edge-pattern-solid edge-thickness-normal edge-pattern-solid flowchart-link" style=";" data-edge="true" data-et="edge" data-id="L_CASE_VENDOR_0" data-points="W3sieCI6MTQ5Ni40ODgyODEyNSwieSI6NjJ9LHsieCI6MTQ5Ni40ODgyODEyNSwieSI6OTl9LHsieCI6MTQ5Ni40ODgyODEyNSwieSI6MTYzfSx7IngiOjE0OTYuNDg4MjgxMjUsInkiOjIyN30seyJ4IjoxNDk2LjQ4ODI4MTI1LCJ5IjoyOTF9LHsieCI6MTQ5Ni40ODgyODEyNSwieSI6MzU1fSx7IngiOjE0OTYuNDg4MjgxMjUsInkiOjQxOX0seyJ4IjoxNDk2LjQ4ODI4MTI1LCJ5Ijo0ODN9LHsieCI6MTQ5Ni40ODgyODEyNSwieSI6NTQ3fSx7IngiOjE0OTYuNDg4MjgxMjUsInkiOjYxMX0seyJ4IjoxNDk2LjQ4ODI4MTI1LCJ5Ijo2NzV9LHsieCI6MTQ5Ni40ODgyODEyNSwieSI6NzM5fSx7IngiOjgzNi4yMjI2NTYyNSwieSI6Nzk4LjA5NjgyNDk0NTkxN31d" marker-end="url(#my-svg_flowchart-v2-pointEnd)"/><path d="M1522.905,62L1528.938,68.167C1534.972,74.333,1547.039,86.667,1553.072,103.5C1559.105,120.333,1559.105,141.667,1559.105,163C1559.105,184.333,1559.105,205.667,1559.105,227C1559.105,248.333,1559.105,269.667,1559.105,291C1559.105,312.333,1559.105,333.667,1559.105,355C1559.105,376.333,1559.105,397.667,1559.105,419C1559.105,440.333,1559.105,461.667,1559.105,483C1559.105,504.333,1559.105,525.667,1559.105,547C1559.105,568.333,1559.105,589.667,1461.857,609.786C1364.608,629.905,1170.111,648.81,1072.863,658.262L975.614,667.715" id="L_CASE_TXN_0" class="edge-thickness-normal edge-pattern-solid edge-thickness-normal edge-pattern-solid flowchart-link" style=";" data-edge="true" data-et="edge" data-id="L_CASE_TXN_0" data-points="W3sieCI6MTUyMi45MDQ5MDcyMjY1NjI1LCJ5Ijo2Mn0seyJ4IjoxNTU5LjEwNTQ2ODc1LCJ5Ijo5OX0seyJ4IjoxNTU5LjEwNTQ2ODc1LCJ5IjoxNjN9LHsieCI6MTU1OS4xMDU0Njg3NSwieSI6MjI3fSx7IngiOjE1NTkuMTA1NDY4NzUsInkiOjI5MX0seyJ4IjoxNTU5LjEwNTQ2ODc1LCJ5IjozNTV9LHsieCI6MTU1OS4xMDU0Njg3NSwieSI6NDE5fSx7IngiOjE1NTkuMTA1NDY4NzUsInkiOjQ4M30seyJ4IjoxNTU5LjEwNTQ2ODc1LCJ5Ijo1NDd9LHsieCI6MTU1OS4xMDU0Njg3NSwieSI6NjExfSx7IngiOjk3MS42MzI4MTI1LCJ5Ijo2NjguMTAxODkxODk2NzAyMX1d" marker-end="url(#my-svg_flowchart-v2-pointEnd)"/></g><g class="edgeLabels"><g class="edgeLabel" transform="translate(388.32421875, 355)"><g class="label" data-id="L_EMP_MGR_0" transform="translate(-37.40625, -12)"><foreignObject width="74.8125" height="24"><div xmlns="http://www.w3.org/1999/xhtml" class="labelBkg" style="display: table-cell; white-space: nowrap; line-height: 1.5; max-width: 200px; text-align: center;"><span class="edgeLabel"><p>reports_to</p></span></div></foreignObject></g></g><g class="edgeLabel" transform="translate(573.40625, 419)"><g class="label" data-id="L_EMP_DEPT_0" transform="translate(-38.7578125, -12)"><foreignObject width="77.515625" height="24"><div xmlns="http://www.w3.org/1999/xhtml" class="labelBkg" style="display: table-cell; white-space: nowrap; line-height: 1.5; max-width: 200px; text-align: center;"><span class="edgeLabel"><p>belongs_to</p></span></div></foreignObject></g></g><g class="edgeLabel" transform="translate(296.1875, 483)"><g class="label" data-id="L_MGR_DEPT_0" transform="translate(-31.0390625, -12)"><foreignObject width="62.078125" height="24"><div xmlns="http://www.w3.org/1999/xhtml" class="labelBkg" style="display: table-cell; white-space: nowrap; line-height: 1.5; max-width: 200px; text-align: center;"><span class="edgeLabel"><p>manages</p></span></div></foreignObject></g></g><g class="edgeLabel" transform="translate(746.4165, 375.00548)"><g class="label" data-id="L_EMP_NOM_0" transform="translate(-27.3984375, -12)"><foreignObject width="54.796875" height="24"><div xmlns="http://www.w3.org/1999/xhtml" class="labelBkg" style="display: table-cell; white-space: nowrap; line-height: 1.5; max-width: 200px; text-align: center;"><span class="edgeLabel"><p>submits</p></span></div></foreignObject></g></g><g class="edgeLabel" transform="translate(791.10783, 498.57895)"><g class="label" data-id="L_NOM_APPROVAL_0" transform="translate(-45.859375, -12)"><foreignObject width="91.71875" height="24"><div xmlns="http://www.w3.org/1999/xhtml" class="labelBkg" style="display: table-cell; white-space: nowrap; line-height: 1.5; max-width: 200px; text-align: center;"><span class="edgeLabel"><p>approved_by</p></span></div></foreignObject></g></g><g class="edgeLabel" transform="translate(480.4609375, 483)"><g class="label" data-id="L_MGR_APPROVAL_0" transform="translate(-32.171875, -12)"><foreignObject width="64.34375" height="24"><div xmlns="http://www.w3.org/1999/xhtml" class="labelBkg" style="display: table-cell; white-space: nowrap; line-height: 1.5; max-width: 200px; text-align: center;"><span class="edgeLabel"><p>performs</p></span></div></foreignObject></g></g><g class="edgeLabel" transform="translate(500.57597, 629.55461)"><g class="label" data-id="L_APPROVAL_TXN_0" transform="translate(-37.203125, -12)"><foreignObject width="74.40625" height="24"><div xmlns="http://www.w3.org/1999/xhtml" class="labelBkg" style="display: table-cell; white-space: nowrap; line-height: 1.5; max-width: 200px; text-align: center;"><span class="edgeLabel"><p>authorizes</p></span></div></foreignObject></g></g><g class="edgeLabel" transform="translate(838.171875, 739)"><g class="label" data-id="L_TXN_VENDOR_0" transform="translate(-93.4609375, -12)"><foreignObject width="186.921875" height="24"><div xmlns="http://www.w3.org/1999/xhtml" class="labelBkg" style="display: table-cell; white-space: nowrap; line-height: 1.5; max-width: 200px; text-align: center;"><span class="edgeLabel"><p>paid_to / associated_with</p></span></div></foreignObject></g></g><g class="edgeLabel" transform="translate(724.7109375, 547)"><g class="label" data-id="L_EMP_VENDOR_0" transform="translate(-37.6875, -12)"><foreignObject width="75.375" height="24"><div xmlns="http://www.w3.org/1999/xhtml" class="labelBkg" style="display: table-cell; white-space: nowrap; line-height: 1.5; max-width: 200px; text-align: center;"><span class="edgeLabel"><p>related_to</p></span></div></foreignObject></g></g><g class="edgeLabel" transform="translate(781.44140625, 867)"><g class="label" data-id="L_VENDOR_DOC_0" transform="translate(-33.53125, -12)"><foreignObject width="67.0625" height="24"><div xmlns="http://www.w3.org/1999/xhtml" class="labelBkg" style="display: table-cell; white-space: nowrap; line-height: 1.5; max-width: 200px; text-align: center;"><span class="edgeLabel"><p>linked_to</p></span></div></foreignObject></g></g><g class="edgeLabel" transform="translate(1189.24609375, 483)"><g class="label" data-id="L_EMP_DEVICE_0" transform="translate(-15.2109375, -12)"><foreignObject width="30.421875" height="24"><div xmlns="http://www.w3.org/1999/xhtml" class="labelBkg" style="display: table-cell; white-space: nowrap; line-height: 1.5; max-width: 200px; text-align: center;"><span class="edgeLabel"><p>uses</p></span></div></foreignObject></g></g><g class="edgeLabel" transform="translate(1189.24609375, 739)"><g class="label" data-id="L_DEVICE_IDENTITY_0" transform="translate(-57.3828125, -12)"><foreignObject width="114.765625" height="24"><div xmlns="http://www.w3.org/1999/xhtml" class="labelBkg" style="display: table-cell; white-space: nowrap; line-height: 1.5; max-width: 200px; text-align: center;"><span class="edgeLabel"><p>associated_with</p></span></div></foreignObject></g></g><g class="edgeLabel" transform="translate(1189.24609375, 867)"><g class="label" data-id="L_IDENTITY_DOC_0" transform="translate(-70.09375, -12)"><foreignObject width="140.1875" height="24"><div xmlns="http://www.w3.org/1999/xhtml" class="labelBkg" style="display: table-cell; white-space: nowrap; line-height: 1.5; max-width: 200px; text-align: center;"><span class="edgeLabel"><p>accesses / modifies</p></span></div></foreignObject></g></g><g class="edgeLabel" transform="translate(1055.58203125, 675)"><g class="label" data-id="L_NOM_DOC_0" transform="translate(-35.203125, -12)"><foreignObject width="70.40625" height="24"><div xmlns="http://www.w3.org/1999/xhtml" class="labelBkg" style="display: table-cell; white-space: nowrap; line-height: 1.5; max-width: 200px; text-align: center;"><span class="edgeLabel"><p>generates</p></span></div></foreignObject></g></g><g class="edgeLabel" transform="translate(957.39453125, 803)"><g class="label" data-id="L_TXN_DOC_0" transform="translate(-35.203125, -12)"><foreignObject width="70.40625" height="24"><div xmlns="http://www.w3.org/1999/xhtml" class="labelBkg" style="display: table-cell; white-space: nowrap; line-height: 1.5; max-width: 200px; text-align: center;"><span class="edgeLabel"><p>generates</p></span></div></foreignObject></g></g><g class="edgeLabel" transform="translate(612.71875, 739)"><g class="label" data-id="L_APPROVAL_DOC_0" transform="translate(-35.203125, -12)"><foreignObject width="70.40625" height="24"><div xmlns="http://www.w3.org/1999/xhtml" class="labelBkg" style="display: table-cell; white-space: nowrap; line-height: 1.5; max-width: 200px; text-align: center;"><span class="edgeLabel"><p>generates</p></span></div></foreignObject></g></g><g class="edgeLabel" transform="translate(46.203125, 227)"><g class="label" data-id="L_ALERT_EMP_0" transform="translate(-38.203125, -12)"><foreignObject width="76.40625" height="24"><div xmlns="http://www.w3.org/1999/xhtml" class="labelBkg" style="display: table-cell; white-space: nowrap; line-height: 1.5; max-width: 200px; text-align: center;"><span class="edgeLabel"><p>references</p></span></div></foreignObject></g></g><g class="edgeLabel" transform="translate(104.40625, 483)"><g class="label" data-id="L_ALERT_VENDOR_0" transform="translate(-38.203125, -12)"><foreignObject width="76.40625" height="24"><div xmlns="http://www.w3.org/1999/xhtml" class="labelBkg" style="display: table-cell; white-space: nowrap; line-height: 1.5; max-width: 200px; text-align: center;"><span class="edgeLabel"><p>references</p></span></div></foreignObject></g></g><g class="edgeLabel" transform="translate(162.609375, 419)"><g class="label" data-id="L_ALERT_TXN_0" transform="translate(-38.203125, -12)"><foreignObject width="76.40625" height="24"><div xmlns="http://www.w3.org/1999/xhtml" class="labelBkg" style="display: table-cell; white-space: nowrap; line-height: 1.5; max-width: 200px; text-align: center;"><span class="edgeLabel"><p>references</p></span></div></foreignObject></g></g><g class="edgeLabel" transform="translate(220.8125, 355)"><g class="label" data-id="L_ALERT_APPROVAL_0" transform="translate(-38.203125, -12)"><foreignObject width="76.40625" height="24"><div xmlns="http://www.w3.org/1999/xhtml" class="labelBkg" style="display: table-cell; white-space: nowrap; line-height: 1.5; max-width: 200px; text-align: center;"><span class="edgeLabel"><p>references</p></span></div></foreignObject></g></g><g class="edgeLabel" transform="translate(1234.49609375, 291)"><g class="label" data-id="L_ALERT_NOM_0" transform="translate(-38.203125, -12)"><foreignObject width="76.40625" height="24"><div xmlns="http://www.w3.org/1999/xhtml" class="labelBkg" style="display: table-cell; white-space: nowrap; line-height: 1.5; max-width: 200px; text-align: center;"><span class="edgeLabel"><p>references</p></span></div></foreignObject></g></g><g class="edgeLabel" transform="translate(1313.05078125, 547)"><g class="label" data-id="L_ALERT_DOC_0" transform="translate(-38.203125, -12)"><foreignObject width="76.40625" height="24"><div xmlns="http://www.w3.org/1999/xhtml" class="labelBkg" style="display: table-cell; white-space: nowrap; line-height: 1.5; max-width: 200px; text-align: center;"><span class="edgeLabel"><p>references</p></span></div></foreignObject></g></g><g class="edgeLabel" transform="translate(235.74609375, 99)"><g class="label" data-id="L_CASE_ALERT_0" transform="translate(-29.890625, -12)"><foreignObject width="59.78125" height="24"><div xmlns="http://www.w3.org/1999/xhtml" class="labelBkg" style="display: table-cell; white-space: nowrap; line-height: 1.5; max-width: 200px; text-align: center;"><span class="edgeLabel"><p>contains</p></span></div></foreignObject></g></g><g class="edgeLabel" transform="translate(1371.25390625, 483)"><g class="label" data-id="L_CASE_DOC_0" transform="translate(-27.7109375, -12)"><foreignObject width="55.421875" height="24"><div xmlns="http://www.w3.org/1999/xhtml" class="labelBkg" style="display: table-cell; white-space: nowrap; line-height: 1.5; max-width: 200px; text-align: center;"><span class="edgeLabel"><p>collects</p></span></div></foreignObject></g></g><g class="edgeLabel" transform="translate(1433.87109375, 163)"><g class="label" data-id="L_CASE_EMP_0" transform="translate(-42.6171875, -12)"><foreignObject width="85.234375" height="24"><div xmlns="http://www.w3.org/1999/xhtml" class="labelBkg" style="display: table-cell; white-space: nowrap; line-height: 1.5; max-width: 200px; text-align: center;"><span class="edgeLabel"><p>investigates</p></span></div></foreignObject></g></g><g class="edgeLabel" transform="translate(1496.48828125, 419)"><g class="label" data-id="L_CASE_VENDOR_0" transform="translate(-42.6171875, -12)"><foreignObject width="85.234375" height="24"><div xmlns="http://www.w3.org/1999/xhtml" class="labelBkg" style="display: table-cell; white-space: nowrap; line-height: 1.5; max-width: 200px; text-align: center;"><span class="edgeLabel"><p>investigates</p></span></div></foreignObject></g></g><g class="edgeLabel" transform="translate(1559.10546875, 355)"><g class="label" data-id="L_CASE_TXN_0" transform="translate(-42.6171875, -12)"><foreignObject width="85.234375" height="24"><div xmlns="http://www.w3.org/1999/xhtml" class="labelBkg" style="display: table-cell; white-space: nowrap; line-height: 1.5; max-width: 200px; text-align: center;"><span class="edgeLabel"><p>investigates</p></span></div></foreignObject></g></g></g><g class="nodes"><g class="node default entity" id="flowchart-EMP-0" transform="translate(658.1171875, 291)"><rect class="basic label-container" style="fill:#0f172a !important;stroke:#38bdf8 !important;stroke-width:1px !important" x="-64.7109375" y="-27" width="129.421875" height="54"/><g class="label" style="color:#e0f2fe !important" transform="translate(-34.7109375, -12)"><rect/><foreignObject width="69.421875" height="24"><div style="color: rgb(224, 242, 254) !important; display: table-cell; white-space: nowrap; line-height: 1.5; max-width: 200px; text-align: center;" xmlns="http://www.w3.org/1999/xhtml"><span style="color:#e0f2fe !important" class="nodeLabel"><p>Employee</p></span></div></foreignObject></g></g><g class="node default entity" id="flowchart-MGR-1" transform="translate(388.32421875, 419)"><rect class="basic label-container" style="fill:#0f172a !important;stroke:#38bdf8 !important;stroke-width:1px !important" x="-59.9453125" y="-27" width="119.890625" height="54"/><g class="label" style="color:#e0f2fe !important" transform="translate(-29.9453125, -12)"><rect/><foreignObject width="59.890625" height="24"><div style="color: rgb(224, 242, 254) !important; display: table-cell; white-space: nowrap; line-height: 1.5; max-width: 200px; text-align: center;" xmlns="http://www.w3.org/1999/xhtml"><span style="color:#e0f2fe !important" class="nodeLabel"><p>Manager</p></span></div></foreignObject></g></g><g class="node default entity" id="flowchart-DEPT-2" transform="translate(374.765625, 547)"><rect class="basic label-container" style="fill:#0f172a !important;stroke:#38bdf8 !important;stroke-width:1px !important" x="-72.7578125" y="-27" width="145.515625" height="54"/><g class="label" style="color:#e0f2fe !important" transform="translate(-42.7578125, -12)"><rect/><foreignObject width="85.515625" height="24"><div style="color: rgb(224, 242, 254) !important; display: table-cell; white-space: nowrap; line-height: 1.5; max-width: 200px; text-align: center;" xmlns="http://www.w3.org/1999/xhtml"><span style="color:#e0f2fe !important" class="nodeLabel"><p>Department</p></span></div></foreignObject></g></g><g class="node default entity" id="flowchart-VENDOR-3" transform="translate(781.44140625, 803)"><rect class="basic label-container" style="fill:#0f172a !important;stroke:#38bdf8 !important;stroke-width:1px !important" x="-54.78125" y="-27" width="109.5625" height="54"/><g class="label" style="color:#e0f2fe !important" transform="translate(-24.78125, -12)"><rect/><foreignObject width="49.5625" height="24"><div style="color: rgb(224, 242, 254) !important; display: table-cell; white-space: nowrap; line-height: 1.5; max-width: 200px; text-align: center;" xmlns="http://www.w3.org/1999/xhtml"><span style="color:#e0f2fe !important" class="nodeLabel"><p>Vendor</p></span></div></foreignObject></g></g><g class="node default entity" id="flowchart-APPROVAL-4" transform="translate(559.0390625, 547)"><rect class="basic label-container" style="fill:#0f172a !important;stroke:#38bdf8 !important;stroke-width:1px !important" x="-61.515625" y="-27" width="123.03125" height="54"/><g class="label" style="color:#e0f2fe !important" transform="translate(-31.515625, -12)"><rect/><foreignObject width="63.03125" height="24"><div style="color: rgb(224, 242, 254) !important; display: table-cell; white-space: nowrap; line-height: 1.5; max-width: 200px; text-align: center;" xmlns="http://www.w3.org/1999/xhtml"><span style="color:#e0f2fe !important" class="nodeLabel"><p>Approval</p></span></div></foreignObject></g></g><g class="node default entity" id="flowchart-TXN-5" transform="translate(900.6640625, 675)"><rect class="basic label-container" style="fill:#0f172a !important;stroke:#38bdf8 !important;stroke-width:1px !important" x="-70.96875" y="-27" width="141.9375" height="54"/><g class="label" style="color:#e0f2fe !important" transform="translate(-40.96875, -12)"><rect/><foreignObject width="81.9375" height="24"><div style="color: rgb(224, 242, 254) !important; display: table-cell; white-space: nowrap; line-height: 1.5; max-width: 200px; text-align: center;" xmlns="http://www.w3.org/1999/xhtml"><span style="color:#e0f2fe !important" class="nodeLabel"><p>Transaction</p></span></div></foreignObject></g></g><g class="node default entity" id="flowchart-NOM-6" transform="translate(1022.65234375, 419)"><rect class="basic label-container" style="fill:#0f172a !important;stroke:#38bdf8 !important;stroke-width:1px !important" x="-108.328125" y="-27" width="216.65625" height="54"/><g class="label" style="color:#e0f2fe !important" transform="translate(-78.328125, -12)"><rect/><foreignObject width="156.65625" height="24"><div style="color: rgb(224, 242, 254) !important; display: table-cell; white-space: nowrap; line-height: 1.5; max-width: 200px; text-align: center;" xmlns="http://www.w3.org/1999/xhtml"><span style="color:#e0f2fe !important" class="nodeLabel"><p>Nomination / Request</p></span></div></foreignObject></g></g><g class="node default entity" id="flowchart-DEVICE-7" transform="translate(1189.24609375, 675)"><rect class="basic label-container" style="fill:#0f172a !important;stroke:#38bdf8 !important;stroke-width:1px !important" x="-53.796875" y="-27" width="107.59375" height="54"/><g class="label" style="color:#e0f2fe !important" transform="translate(-23.796875, -12)"><rect/><foreignObject width="47.59375" height="24"><div style="color: rgb(224, 242, 254) !important; display: table-cell; white-space: nowrap; line-height: 1.5; max-width: 200px; text-align: center;" xmlns="http://www.w3.org/1999/xhtml"><span style="color:#e0f2fe !important" class="nodeLabel"><p>Device</p></span></div></foreignObject></g></g><g class="node default entity" id="flowchart-IDENTITY-8" transform="translate(1189.24609375, 803)"><rect class="basic label-container" style="fill:#0f172a !important;stroke:#38bdf8 !important;stroke-width:1px !important" x="-88.8046875" y="-27" width="177.609375" height="54"/><g class="label" style="color:#e0f2fe !important" transform="translate(-58.8046875, -12)"><rect/><foreignObject width="117.609375" height="24"><div style="color: rgb(224, 242, 254) !important; display: table-cell; white-space: nowrap; line-height: 1.5; max-width: 200px; text-align: center;" xmlns="http://www.w3.org/1999/xhtml"><span style="color:#e0f2fe !important" class="nodeLabel"><p>Identity Account</p></span></div></foreignObject></g></g><g class="node default evidence" id="flowchart-DOC-9" transform="translate(999.07421875, 931)"><rect class="basic label-container" style="fill:#1e293b !important;stroke:#94a3b8 !important;stroke-width:1px !important" x="-107.09375" y="-27" width="214.1875" height="54"/><g class="label" style="color:#f8fafc !important" transform="translate(-77.09375, -12)"><rect/><foreignObject width="154.1875" height="24"><div style="color: rgb(248, 250, 252) !important; display: table-cell; white-space: nowrap; line-height: 1.5; max-width: 200px; text-align: center;" xmlns="http://www.w3.org/1999/xhtml"><span style="color:#f8fafc !important" class="nodeLabel"><p>Document / Evidence</p></span></div></foreignObject></g></g><g class="node default risk" id="flowchart-CASE-10" transform="translate(1496.48828125, 35)"><rect class="basic label-container" style="fill:#312e81 !important;stroke:#a78bfa !important;stroke-width:1px !important" x="-94.90625" y="-27" width="189.8125" height="54"/><g class="label" style="color:#ede9fe !important" transform="translate(-64.90625, -12)"><rect/><foreignObject width="129.8125" height="24"><div style="color: rgb(237, 233, 254) !important; display: table-cell; white-space: nowrap; line-height: 1.5; max-width: 200px; text-align: center;" xmlns="http://www.w3.org/1999/xhtml"><span style="color:#ede9fe !important" class="nodeLabel"><p>Investigation Case</p></span></div></foreignObject></g></g><g class="node default risk" id="flowchart-ALERT-11" transform="translate(235.74609375, 163)"><rect class="basic label-container" style="fill:#312e81 !important;stroke:#a78bfa !important;stroke-width:1px !important" x="-63.90625" y="-27" width="127.8125" height="54"/><g class="label" style="color:#ede9fe !important" transform="translate(-33.90625, -12)"><rect/><foreignObject width="67.8125" height="24"><div style="color: rgb(237, 233, 254) !important; display: table-cell; white-space: nowrap; line-height: 1.5; max-width: 200px; text-align: center;" xmlns="http://www.w3.org/1999/xhtml"><span style="color:#ede9fe !important" class="nodeLabel"><p>Risk Alert</p></span></div></foreignObject></g></g></g></g></g></svg>